<svg width="73" height="75" viewBox="0 0 73 75" fill="none" xmlns="http://www.w3.org/2000/svg">
    <rect width="72.1508" height="74.8705" rx="20" fill="#1F1F1F" />
    <path
        d="M32.5603 11.4137L32.6275 11.6631C32.8037 11.7287 33.5239 11.5095 33.7526 11.4539C35.6065 11.0141 37.4842 10.6813 39.3763 10.4572C45.3892 9.79861 58.6243 10.4876 61.514 16.7656C61.5793 16.9088 61.64 17.0539 61.6961 17.2008C62.8778 20.2783 61.5199 23.9269 59.3303 26.1444C59.2142 26.2619 59.0492 26.42 58.9559 26.5512C59.4226 27.9862 59.681 29.9686 59.1824 31.4276C63.4618 39.1878 63.4213 47.8196 54.885 52.5127C54.1123 52.9376 53.0542 53.4026 52.3335 53.8608C52.3419 54.926 52.611 57.9574 51.8772 58.6932C50.3043 60.2704 42.9528 61.0463 40.6876 61.2761C42.101 62.8654 42.0056 65.2876 40.4716 66.7608C38.9374 68.234 36.5133 68.2313 34.9825 66.7548C33.4517 65.2782 33.3616 62.8557 34.7785 61.2696C32.4478 61.1006 25.5485 60.4167 23.7991 59.0652C23.3809 58.7421 23.2131 58.4116 23.1498 57.8932C23.0539 57.4262 23.0901 54.8125 23.0904 54.2194C18.0681 52.4623 13.4062 48.1967 12.9952 42.628C12.9115 41.8155 12.9418 40.198 13.0594 39.431C13.0092 38.5556 13.8275 35.8973 14.1624 35.0459C13.2674 35.0632 12.5557 34.9563 11.804 34.4177C11.2785 34.0412 10.9169 33.3219 10.8766 32.6905C10.6508 29.1429 14.4288 24.0149 16.4887 21.3837C17.0519 20.5277 16.4274 16.542 17.3725 15.4368C19.398 13.0678 20.9848 14.5046 22.954 15.8618C24.2933 15.1272 25.5411 14.2815 26.9745 13.7222C28.2555 13.2225 29.5919 12.5928 30.9046 12.1986C31.2676 12.1496 32.2169 11.8798 32.5179 11.6802L32.5603 11.4137Z"
        fill="#6949FE"
    />
    <path
        d="M32.5603 11.4137L32.6275 11.6631C32.8037 11.7287 33.5239 11.5095 33.7526 11.4539C35.6065 11.0141 37.4842 10.6813 39.3763 10.4572C45.3892 9.79861 58.6243 10.4876 61.514 16.7657C61.5793 16.9088 61.64 17.0539 61.6961 17.2008C62.8778 20.2783 61.5199 23.9269 59.3303 26.1444C59.2142 26.2619 59.0492 26.42 58.9559 26.5512C59.4226 27.9862 59.681 29.9686 59.1824 31.4276C58.5446 31.3227 57.6299 30.7305 56.9644 30.5211C48.1955 27.7607 38.5333 27.6076 29.5356 29.2367C26.2319 29.8349 26.3185 29.7999 23.5821 31.5593C22.2622 32.4079 18.8831 34.0018 17.4147 34.3525C16.6326 34.7215 15.0367 35.0103 14.1624 35.0459C13.2674 35.0632 12.5557 34.9563 11.804 34.4177C11.2785 34.0412 10.9169 33.3219 10.8766 32.6905C10.6508 29.1429 14.4288 24.0149 16.4887 21.3837C17.0519 20.5277 16.4274 16.542 17.3725 15.4368C19.398 13.0678 20.9848 14.5046 22.954 15.8618C24.2933 15.1272 25.5411 14.2815 26.9745 13.7222C28.2555 13.2225 29.5919 12.5928 30.9046 12.1986C31.2676 12.1496 32.2169 11.8798 32.5179 11.6802L32.5603 11.4137Z"
        fill="#5B21B6"
    />
    <path
        d="M36.6664 21.0827C36.7434 20.7859 36.8412 20.6643 37.1055 20.4994C42.836 16.9251 49.8756 14.9393 56.6261 15.9752C58.3718 16.2431 59.616 16.8292 61.2391 17.4001C61.4177 17.4629 61.5466 17.3093 61.6961 17.2009C62.8778 20.2784 61.52 23.927 59.3303 26.1445C59.2143 26.262 59.0492 26.42 58.9559 26.5512C59.4227 27.9862 59.681 29.9687 59.1824 31.4276C58.5447 31.3228 57.6299 30.7306 56.9645 30.5211C48.1956 27.7607 38.5333 27.6076 29.5356 29.2368C26.232 29.835 26.3185 29.8 23.5821 31.5594C22.2623 32.408 18.8831 34.0019 17.4148 34.3526L17.3817 34.2793C17.8162 33.9439 18.7209 33.6714 19.2288 33.3311C23.984 30.1461 28.0538 26.03 32.9598 23.0737C34.0943 22.3901 35.4538 21.5665 36.6664 21.0827Z"
        fill="#4C1D95"
    />
    <path
        d="M36.6664 21.0823C39.4459 19.9069 43.3623 18.6108 46.3808 18.2393C41.1486 20.0303 36.6822 22.6483 32.3523 26.0672C39.3303 23.5954 51.3995 22.8949 58.2067 26.1226C58.4672 26.2457 58.7176 26.3888 58.9559 26.5509C59.4227 27.9859 59.681 29.9683 59.1824 31.4273C58.5447 31.3224 57.6299 30.7302 56.9644 30.5208C48.1956 27.7604 38.5333 27.6073 29.5356 29.2364C26.232 29.8346 26.3185 29.7997 23.5821 31.559C22.2623 32.4076 18.8831 34.0015 17.4148 34.3522L17.3817 34.2789C17.8162 33.9436 18.7209 33.671 19.2288 33.3308C23.984 30.1457 28.0538 26.0296 32.9598 23.0734C34.0943 22.3898 35.4538 21.5661 36.6664 21.0823Z"
        fill="#1E1B56"
    />
    <path
        d="M16.4887 21.3835C17.0518 20.5275 16.4274 16.5418 17.3724 15.4366C19.398 13.0675 20.9847 14.5043 22.954 15.8615C24.1513 16.8962 25.4694 17.8001 26.6705 18.8309C26.824 18.9626 26.9856 19.1369 27.1421 19.2557C25.567 22.4581 21.9512 25.6703 18.8901 27.4476C18.3481 27.7669 17.7909 28.0596 17.2205 28.3248C16.9757 28.4372 16.4249 28.655 16.2331 28.7663C16.2252 27.6508 16.6344 21.8497 16.4887 21.3835Z"
        fill="#6949FE"
    />
    <path
        d="M21.5479 20.7315C22.4568 20.7264 22.9096 21.5046 23.7284 21.8153C24.0379 21.9327 24.2742 22.1649 24.2964 22.5068C24.0932 22.9603 22.8156 23.5922 22.1788 24.1659C21.5753 24.6247 21.1005 24.9827 20.5553 25.5102C20.7561 24.189 20.7732 22.3998 21.2169 21.1072C21.2507 21.0088 21.462 20.8087 21.5479 20.7315Z"
        fill="#3F28A2"
    />
    <path
        d="M28.1639 17.1924C27.6359 23.1758 23.4313 27.034 17.8997 28.5333C16.9409 28.7931 16.1123 29.1025 15.1234 29.2755L15.0739 29.2839C15.251 29.2085 16.1035 28.8505 16.2331 28.7662C16.4249 28.6549 16.9757 28.4372 17.2205 28.3247C17.7909 28.0595 18.3481 27.7668 18.8902 27.4476C21.9512 25.6702 25.567 22.4581 27.1421 19.2556C27.6414 18.5406 27.8444 17.9845 28.1639 17.1924Z"
        fill="#1E1B56"
    />
    <path
        d="M23.1379 54.2803C24.7003 54.8009 26.5985 55.4602 28.2254 55.7972C34.0407 57.0015 40.412 57.0469 46.2176 55.7791C48.3641 55.3103 50.3069 54.5682 52.3335 53.8613C52.3419 54.9265 52.611 57.9578 51.8772 58.6936C50.3044 60.2709 42.9528 61.0468 40.6877 61.2766C42.1011 62.8658 42.0057 65.2881 40.4716 66.7613C38.9375 68.2345 36.5134 68.2318 34.9826 66.7553C33.4518 65.2787 33.3617 62.8562 34.7785 61.27C32.4478 61.1011 25.5486 60.4172 23.7991 59.0657C23.3809 58.7426 23.2131 58.4121 23.1499 57.8937C23.1994 56.8982 23.1505 55.2968 23.1379 54.2803Z"
        fill="#3F28A2"
    />
    <path
        d="M34.7785 61.2694C35.5305 60.4276 36.6059 59.947 37.7345 59.9482C38.8632 59.9495 39.9376 60.4325 40.6877 61.2759C42.1011 62.8652 42.0056 65.2875 40.4716 66.7607C38.9375 68.2339 36.5133 68.2312 34.9825 66.7546C33.4517 65.278 33.3616 62.8556 34.7785 61.2694Z"
        fill="#FEA92B"
    />
    <path
        d="M37.4346 62.1211C39.0392 62.0252 39.387 63.3626 38.3521 64.4893C38.3311 65.0473 38.3609 65.3565 38.048 65.8285C37.0171 65.9791 37.1505 65.207 37.1483 64.4589C36.2348 63.5819 36.2361 62.7046 37.4346 62.1211Z"
        fill="#4B2170"
    />
    <path
        d="M19.8691 34.8026C23.8417 28.915 34.421 31.5864 34.9128 38.7486C34.9439 39.2009 35.23 39.8192 34.9713 40.2172C35.0782 41.7326 34.8813 42.0408 33.7662 43.0324C30.0787 46.3111 24.4021 45.9579 21.2134 42.1821C19.9805 40.7222 19.0621 38.166 19.2339 36.2519C19.2424 35.6615 19.5503 35.2906 19.8691 34.8026Z"
        fill="white"
    />
    <path
        d="M19.8691 34.8026C23.8417 28.915 34.4211 31.5864 34.9128 38.7486C34.9439 39.2009 35.23 39.8192 34.9713 40.2172C34.7979 38.7091 33.8239 36.7516 32.7955 35.6613C29.2796 31.9338 23.9424 31.7333 20.1608 35.0488L19.8691 34.8026Z"
        fill="#372480"
    />
    <path
        d="M19.8692 34.8037L20.1609 35.05C19.7791 35.4887 19.565 35.7734 19.2339 36.253C19.2424 35.6626 19.5503 35.2917 19.8692 34.8037Z"
        fill="#1E1B56"
    />
    <path
        d="M27.1742 35.4779C27.7326 34.8994 28.4985 34.7149 29.0941 35.3485C30.8732 37.2413 30.8994 41.3057 29.0244 43.1432C28.7692 43.3933 28.5084 43.5252 28.144 43.4879C26.2805 43.2698 25.9169 40.1379 25.9882 38.6848C26.0016 38.4094 26.1083 37.4887 26.2113 37.3291C26.4001 36.6921 26.6923 35.9434 27.1742 35.4779Z"
        fill="#3F28A2"
    />
    <path
        d="M26.2112 37.3287C26.4 36.6917 26.6923 35.9431 27.1742 35.4775C27.8379 36.4129 27.405 37.3418 26.2112 37.3287Z"
        fill="#C7BEE9"
    />
    <path
        d="M42.9077 40.0917C42.7493 39.4959 42.9457 38.575 43.0433 37.9669C43.3167 36.2623 44.4498 34.5759 45.7941 33.5208C47.7451 31.996 50.2286 31.3224 52.6827 31.6524C54.7842 31.9162 56.5489 32.9408 57.8429 34.6147C58.1561 35.0641 58.5202 35.6025 58.6848 36.1281L58.6388 36.2423L58.6036 36.2521C58.9201 37.8011 57.9745 40.3063 57.112 41.5515C53.8554 46.2528 46.9783 46.5229 43.2769 42.1973C42.7193 41.5457 42.8687 40.8607 42.9077 40.0917Z"
        fill="white"
    />
    <path
        d="M42.9077 40.0917C42.7493 39.4959 42.9457 38.575 43.0433 37.9669C43.3167 36.2623 44.4498 34.5759 45.7941 33.5208C47.7451 31.996 50.2286 31.3224 52.6827 31.6524C54.7842 31.9162 56.5489 32.9408 57.8429 34.6147L57.6338 34.9927C55.0786 32.8641 51.991 32.0483 48.7966 33.2219C45.488 34.4374 43.6712 36.6671 42.9077 40.0917Z"
        fill="#372480"
    />
    <path
        d="M57.8429 34.6143C58.1561 35.0637 58.5202 35.6021 58.6848 36.1277L58.6387 36.2419L58.6036 36.2516C58.3762 35.7358 58.0215 35.3858 57.6338 34.9922L57.8429 34.6143Z"
        fill="#1E1B56"
    />
    <path
        d="M50.2597 35.5135C52.3127 33.42 53.646 37.6935 53.4566 39.3634C53.3115 40.6428 53.1433 43.2636 51.2534 43.4982C49.2261 43.3735 49.0065 39.8611 49.078 38.582C49.0994 38.1553 49.1573 37.7312 49.2512 37.3144C49.4636 36.5933 49.6937 36.0381 50.2597 35.5135Z"
        fill="#3F28A2"
    />
    <path
        d="M50.2597 35.5137C50.5193 35.7848 50.5788 35.9376 50.7382 36.2687C50.3533 37.1075 50.2118 37.3157 49.2512 37.3145C49.4636 36.5935 49.6937 36.0382 50.2597 35.5137Z"
        fill="#C7BEE9"
    />
    <path
        d="M39.0041 46.7552C39.1271 46.6463 39.2531 46.5407 39.3821 46.4387C39.8658 46.0611 41.0051 45.5274 41.4812 46.1521C41.4688 46.5812 40.6709 46.6542 40.3091 46.7707C39.2084 47.4815 39.6513 48.2211 39.1495 48.5673C38.652 48.4444 38.4966 47.337 38.1356 46.9496C37.7468 46.5323 37.0816 46.8186 36.738 46.3188C36.7175 46.0934 36.7935 46.0087 36.9099 45.8193C37.7953 45.8274 38.4456 46.0473 39.0041 46.7552Z"
        fill="white"
    />
    <path
        d="M30.9046 12.1989C30.7777 11.9774 30.6499 11.7934 30.506 11.5746C29.9536 10.7334 28.4428 9.89164 28.9128 8.73237C29.166 8.10798 30.1392 7.58212 30.7099 7.94111C31.6432 8.52818 32.2365 10.4301 32.5603 11.4141L32.5179 11.6806C32.2169 11.8802 31.2676 12.1499 30.9046 12.1989Z"
        fill="#4C1D95"
    />
</svg>
